<svg width="32" height="32" viewBox="0 0 32 32" fill="none" xmlns="http://www.w3.org/2000/svg">
<path d="M14 26H4V6H11.17L14.59 9.41L15.17 10H28V18H30V10C30 9.46957 29.7893 8.96086 29.4142 8.58579C29.0391 8.21071 28.5304 8 28 8H16L12.59 4.59C12.4039 4.40283 12.1827 4.25434 11.939 4.15308C11.6953 4.05182 11.4339 3.99979 11.17 4H4C3.46957 4 2.96086 4.21071 2.58579 4.58579C2.21071 4.96086 2 5.46957 2 6V26C2 26.5304 2.21071 27.0391 2.58579 27.4142C2.96086 27.7893 3.46957 28 4 28H14V26Z" fill="#7985EF"/>
<path d="M18.4 25.6H16.8C16.5879 25.5998 16.3845 25.5154 16.2346 25.3655C16.0846 25.2155 16.0002 25.0121 16 24.8V23.2H16.8V24.8H18.4V25.6ZM16 20H16.8V21.6H16V20ZM25.6001 18.4H24.8001V16.8H23.2001V16H24.8001C25.0122 16.0002 25.2155 16.0846 25.3655 16.2345C25.5155 16.3845 25.5999 16.5879 25.6001 16.8V18.4ZM20 16H21.6V16.8H20V16ZM16.8 18.4H16V16.8C16.0002 16.5879 16.0846 16.3845 16.2346 16.2345C16.3845 16.0846 16.5879 16.0002 16.8 16H18.4V16.8H16.8V18.4ZM26.0001 28C25.9475 28.0001 25.8955 27.9897 25.847 27.9696C25.7984 27.9495 25.7544 27.92 25.7173 27.8828L23.2621 25.4276L21.9328 27.422C21.8907 27.4852 21.8315 27.5351 21.7621 27.5658C21.6926 27.5966 21.6159 27.6069 21.5408 27.5957C21.4657 27.5844 21.3954 27.5521 21.338 27.5023C21.2806 27.4526 21.2386 27.3875 21.2168 27.3148L18.8168 19.3148C18.7961 19.2456 18.7945 19.1721 18.8121 19.1021C18.8298 19.0321 18.8661 18.9682 18.9171 18.9171C18.9682 18.8661 19.0321 18.8298 19.1021 18.8121C19.1722 18.7944 19.2457 18.7961 19.3148 18.8168L27.3149 21.2168C27.3876 21.2386 27.4527 21.2806 27.5024 21.338C27.5521 21.3953 27.5845 21.4657 27.5958 21.5408C27.607 21.6159 27.5966 21.6926 27.5659 21.762C27.5351 21.8314 27.4853 21.8907 27.4221 21.9328L25.4277 23.262L27.8829 25.7172C27.9579 25.7922 28 25.8939 28 26C28 26.1061 27.9579 26.2078 27.8829 26.2828L26.2829 27.8828C26.2458 27.92 26.2017 27.9495 26.1532 27.9696C26.1046 27.9897 26.0526 28.0001 26.0001 28ZM26.0001 27.0344L27.0345 26L24.1725 23.138L26.2709 21.7388L19.7968 19.7968L21.7388 26.2708L23.1381 24.1724L26.0001 27.0344Z" fill="#B82B2B"/>
<path d="M6 16H12V17.2H6V16ZM6 18.4H12V19.6H6V18.4ZM6 20.8H9V22H6V20.8Z" fill="#59BA57"/>
</svg>
